<?xml version="1.0" encoding="utf-8"?>
<svg xmlns="http://www.w3.org/2000/svg" style="margin: auto; display: block; shape-rendering: auto;" width="289" height="70" preserveAspectRatio="xMidYMid">
<style type="text/css">
  text {
    text-anchor: middle; font-size: 52px; opacity: 0;
  }
</style>
<g style="transform-origin: 144.5px 35px; transform: scale(0.825397);">
<g transform="translate(144.5,35)">
  <g transform="translate(0,0)"><g class="path" style="opacity: 1; transform-origin: -147.23px -4.92593px; animation: 3.22581s linear -1.89247s infinite normal forwards running fade-c5af5fa8-6f93-4b75-acff-487910742d39;"><path d="M2.90-44.10L40.07-44.10L40.70-28.29L39.50-28.29L39.50-28.29Q36.73-36.67 34.59-39.72L34.59-39.72L34.59-39.72Q32.45-42.78 28.41-42.78L28.41-42.78L27.66-42.78L27.66-1.32L33.01-1.32L33.01 0L10.02 0L10.02-1.32L15.37-1.32L15.37-42.78L14.55-42.78L14.55-42.78Q10.52-42.78 8.32-39.60L8.32-39.60L8.32-39.60Q6.11-36.41 3.46-28.29L3.46-28.29L2.27-28.29L2.90-44.10" fill="#fe0000" stroke="none" stroke-width="none" transform="translate(-168.71499633789062,17.12406762017144)" style="fill: rgb(254, 0, 0);"></path></g><g class="path" style="opacity: 1; transform-origin: -103.325px -4.61093px; animation: 3.22581s linear -1.65591s infinite normal forwards running fade-c5af5fa8-6f93-4b75-acff-487910742d39;"><path d="M63.69-22.30L63.69-22.30L60.35-22.30L60.35-1.20L64.45-1.20L64.45 0L43.97 0L43.97-1.20L48.07-1.20L48.07-42.90L43.97-42.90L43.97-44.10L63-44.10L63-44.10Q71.19-44.10 74.62-43.25L74.62-43.25L74.62-43.25Q78.06-42.40 79.44-41.20L79.44-41.20L79.44-41.20Q82.47-38.74 82.47-33.39L82.47-33.39L82.47-33.39Q82.47-28.04 79.82-25.74L79.82-25.74L79.82-25.74Q77.18-23.44 71.76-23.00L71.76-23.00L71.76-22.81L71.76-22.81Q76.86-22.11 78.88-19.78L78.88-19.78L78.88-19.78Q80.89-17.45 80.89-11.97L80.89-11.97L80.89-8.63L80.89-8.63Q80.89-5.36 81.24-4.22L81.24-4.22L81.24-4.22Q81.59-3.09 82.72-3.09L82.72-3.09L82.72-3.09Q83.85-3.09 84.51-4.13L84.51-4.13L84.51-4.13Q85.18-5.17 85.74-8.51L85.74-8.51L86.81-8.38L86.81-8.38Q86.12-3.02 84.39-1.20L84.39-1.20L84.39-1.20Q82.66 0.63 77.49 0.63L77.49 0.63L77.49 0.63Q72.32 0.63 70.15-1.80L70.15-1.80L70.15-1.80Q67.98-4.22 67.98-10.90L67.98-10.90L67.98-15.50L67.98-15.50Q67.98-19.03 67.06-20.66L67.06-20.66L67.06-20.66Q66.15-22.30 63.69-22.30zM62.43-42.90L60.35-42.90L60.35-23.50L62.37-23.50L62.37-23.50Q65.96-23.50 67.69-25.70L67.69-25.70L67.69-25.70Q69.43-27.91 69.43-32.89L69.43-32.89L69.43-34.71L69.43-34.71Q69.43-39.69 67.76-41.30L67.76-41.30L67.76-41.30Q66.09-42.90 62.43-42.90L62.43-42.90" fill="#fe0000" stroke="none" stroke-width="none" transform="translate(-168.71499633789062,17.12406762017144)" style="fill: rgb(255, 99, 0);"></path></g><g class="path" style="opacity: 1; transform-origin: -64.795px -4.92593px; animation: 3.22581s linear -1.41935s infinite normal forwards running fade-c5af5fa8-6f93-4b75-acff-487910742d39;"><path d="M100.17-43.09L108.74-23.37L117.68-43.09L111.32-43.09L111.32-44.10L123.73-44.10L123.73-43.09L119.57-43.09L110.06-22.05L110.06-1.20L113.90-1.20L113.90 0L93.93 0L93.93-1.20L97.78-1.20L97.78-20.85L87.07-43.09L84.11-43.09L84.11-44.10L104.27-44.10L104.27-43.09L100.17-43.09" fill="#fe0000" stroke="none" stroke-width="none" transform="translate(-168.71499633789062,17.12406762017144)" style="fill: rgb(255, 255, 1);"></path></g><g class="path" style="opacity: 1; transform-origin: -23.495px -4.92593px; animation: 3.22581s linear -1.1828s infinite normal forwards running fade-c5af5fa8-6f93-4b75-acff-487910742d39;"><path d="M164.75-42.90L161.28-42.90L161.28 0L152.46 0L130.85-40.76L130.85-1.20L134.32-1.20L134.32 0L125.69 0L125.69-1.20L129.15-1.20L129.15-42.90L125.69-42.90L125.69-44.10L143.07-44.10L159.58-12.47L159.58-42.90L156.11-42.90L156.11-44.10L164.75-44.10L164.75-42.90" fill="#fe0000" stroke="none" stroke-width="none" transform="translate(-168.71499633789062,17.12406762017144)" style="fill: rgb(0, 128, 1);"></path></g><g class="path" style="opacity: 1; transform-origin: 12.63px -4.64093px; animation: 3.22581s linear -0.946237s infinite normal forwards running fade-c5af5fa8-6f93-4b75-acff-487910742d39;"><path d="M175.83-42.90L175.83-44.10L196.31-44.10L196.31-42.90L192.84-42.90L192.84-15.69L192.84-15.69Q192.84-7.18 189.00-3.31L189.00-3.31L189.00-3.31Q185.16 0.57 177.47 0.57L177.47 0.57L177.47 0.57Q172.37 0.57 169.38-1.39L169.38-1.39L169.38-1.39Q166.38-3.34 166.38-6.87L166.38-6.87L166.38-6.87Q166.38-9.58 167.90-11.12L167.90-11.12L167.90-11.12Q169.41-12.66 172.02-12.66L172.02-12.66L172.02-12.66Q174.64-12.66 175.93-11.34L175.93-11.34L175.93-11.34Q177.22-10.02 177.22-8.16L177.22-8.16L177.22-8.16Q177.22-6.30 176.53-4.41L176.53-4.41L174.07-4.41L174.07-4.41Q173.50-3.46 173.50-2.61L173.50-2.61L173.50-2.61Q173.50-1.76 174.35-1.17L174.35-1.17L174.35-1.17Q175.20-0.57 176.59-0.57L176.59-0.57L176.59-0.57Q179.11-0.57 179.83-2.55L179.83-2.55L179.83-2.55Q180.56-4.54 180.56-11.15L180.56-11.15L180.56-42.90L175.83-42.90" fill="#fe0000" stroke="none" stroke-width="none" transform="translate(-168.71499633789062,17.12406762017144)" style="fill: rgb(70, 0, 255);"></path></g><g class="path" style="opacity: 1; transform-origin: 39.785px -4.92593px; animation: 3.22581s linear -0.709677s infinite normal forwards running fade-c5af5fa8-6f93-4b75-acff-487910742d39;"><path d="M198.89-42.90L198.89-44.10L218.11-44.10L218.11-42.90L214.64-42.90L214.64-1.20L218.11-1.20L218.11 0L198.89 0L198.89-1.20L202.36-1.20L202.36-42.90L198.89-42.90" fill="#fe0000" stroke="none" stroke-width="none" transform="translate(-168.71499633789062,17.12406762017144)" style="fill: rgb(207, 25, 215);"></path></g><g class="path" style="opacity: 1; transform-origin: 72.45px -4.92593px; animation: 3.22581s linear -0.473118s infinite normal forwards running fade-c5af5fa8-6f93-4b75-acff-487910742d39;"><path d="M222.58-44.10L259.75-44.10L260.38-28.29L259.18-28.29L259.18-28.29Q256.41-36.67 254.27-39.72L254.27-39.72L254.27-39.72Q252.13-42.78 248.09-42.78L248.09-42.78L247.34-42.78L247.34-1.32L252.69-1.32L252.69 0L229.70 0L229.70-1.32L235.05-1.32L235.05-42.78L234.23-42.78L234.23-42.78Q230.20-42.78 228.00-39.60L228.00-39.60L228.00-39.60Q225.79-36.41 223.15-28.29L223.15-28.29L221.95-28.29L222.58-44.10" fill="#fe0000" stroke="none" stroke-width="none" transform="translate(-168.71499633789062,17.12406762017144)" style="fill: rgb(254, 0, 0);"></path></g><g class="path" style="opacity: 1; transform-origin: 111.32px -4.95593px; animation: 3.22581s linear -0.236559s infinite normal forwards running fade-c5af5fa8-6f93-4b75-acff-487910742d39;"><path d="M281.30-0.69L281.30-0.69L281.30-0.69Q284.45-0.69 286.87-2.39L286.87-2.39L286.87-2.39Q289.30-4.09 289.30-7.53L289.30-7.53L289.30-7.53Q289.30-10.96 286.68-12.79L286.68-12.79L286.68-12.79Q284.07-14.62 279.25-15.97L279.25-15.97L279.25-15.97Q274.43-17.32 272.25-18.33L272.25-18.33L272.25-18.33Q270.08-19.34 268.13-20.98L268.13-20.98L268.13-20.98Q264.22-24.25 264.22-31.12L264.22-31.12L264.22-31.12Q264.22-36.73 268.22-40.76L268.22-40.76L268.22-40.76Q272.22-44.79 279.15-44.79L279.15-44.79L279.15-44.79Q282.49-44.79 286.11-43.82L286.11-43.82L286.11-43.82Q289.74-42.84 290.62-42.84L290.62-42.84L290.62-42.84Q291.50-42.84 292.19-44.10L292.19-44.10L292.89-44.10L293.33-31.37L292.32-31.37L292.32-31.37Q289.30-36.85 285.99-40.16L285.99-40.16L285.99-40.16Q282.68-43.47 278.81-43.47L278.81-43.47L278.81-43.47Q274.93-43.47 272.79-41.67L272.79-41.67L272.79-41.67Q270.65-39.88 270.65-36.89L270.65-36.89L270.65-36.89Q270.65-33.89 273.20-32.29L273.20-32.29L273.20-32.29Q275.75-30.68 279.47-29.67L279.47-29.67L279.47-29.67Q283.19-28.66 284.35-28.29L284.35-28.29L284.35-28.29Q285.52-27.91 287.25-27.25L287.25-27.25L287.25-27.25Q288.98-26.59 290.08-25.86L290.08-25.86L290.08-25.86Q291.19-25.14 292.41-24.03L292.41-24.03L292.41-24.03Q293.64-22.93 294.34-21.61L294.34-21.61L294.34-21.61Q296.04-18.59 296.04-14.43L296.04-14.43L296.04-14.43Q296.04-7.62 291.78-3.50L291.78-3.50L291.78-3.50Q287.53 0.63 280.60 0.63L280.60 0.63L280.60 0.63Q277.01 0.63 272.38-0.32L272.38-0.32L272.38-0.32Q267.75-1.26 267.25-1.26L267.25-1.26L267.25-1.26Q266.36-1.26 265.55 0.63L265.55 0.63L264.66 0.63L264.03-14.36L265.10-14.36L265.10-14.36Q267.88-8.88 272.19-4.79L272.19-4.79L272.19-4.79Q276.51-0.69 281.30-0.69" fill="#fe0000" stroke="none" stroke-width="none" transform="translate(-168.71499633789062,17.12406762017144)" style="fill: rgb(255, 99, 0);"></path></g><g class="path" style="opacity: 1; transform-origin: 150.635px -4.61093px; animation: 3.22581s linear 0s infinite normal forwards running fade-c5af5fa8-6f93-4b75-acff-487910742d39;"><path d="M314.75-13.42L314.75-13.42Q314.75-7.62 316.73-4.54L316.73-4.54L316.73-4.54Q318.72-1.45 323.88-1.45L323.88-1.45L323.88-1.45Q329.05-1.45 331.82-4.66L331.82-4.66L331.82-4.66Q334.59-7.88 334.59-14.43L334.59-14.43L334.59-42.90L330.50-42.90L330.50-44.10L339.70-44.10L339.70-42.90L336.23-42.90L336.23-14.87L336.23-14.87Q336.23-7.06 332.77-3.21L332.77-3.21L332.77-3.21Q329.30 0.63 320.51 0.63L320.51 0.63L320.51 0.63Q311.72 0.63 307.09-3.02L307.09-3.02L307.09-3.02Q302.46-6.68 302.46-15.56L302.46-15.56L302.46-42.90L299.00-42.90L299.00-44.10L318.84-44.10L318.84-42.90L314.75-42.90L314.75-13.42" fill="#fe0000" stroke="none" stroke-width="none" transform="translate(-168.71499633789062,17.12406762017144)" style="fill: rgb(255, 255, 1);"></path></g></g>
</g>
</g>
<style id="fade-c5af5fa8-6f93-4b75-acff-487910742d39" data-anikit="">@keyframes fade-c5af5fa8-6f93-4b75-acff-487910742d39
{
  0% {
    animation-timing-function: cubic-bezier(0.2057,0.573,0.3723,0.9184);
    opacity: 1;
  }
  100% {
    opacity: 0;
  }
}</style></svg>