<?xml version="1.0" standalone="no"?>
<!DOCTYPE svg PUBLIC "-//W3C//DTD SVG 20010904//EN"
 "http://www.w3.org/TR/2001/REC-SVG-20010904/DTD/svg10.dtd">
<svg version="1.0" xmlns="http://www.w3.org/2000/svg"
 width="325.000000pt" height="134.000000pt" viewBox="0 0 325.000000 134.000000"
 preserveAspectRatio="xMidYMid meet">

<g transform="translate(0.000000,134.000000) scale(0.100000,-0.100000)"
fill="#000000" stroke="none">
<path d="M1306 1251 c-54 -29 -57 -29 -128 -19 -91 13 -313 4 -433 -17 -114
-20 -268 -72 -341 -116 -212 -127 -271 -333 -132 -466 112 -108 313 -78 392
60 39 68 42 102 12 132 -34 34 -55 23 -93 -47 -35 -66 -81 -98 -140 -98 -62 0
-93 32 -93 95 0 100 62 174 204 240 138 65 233 86 419 92 86 3 157 3 157 0 0
-3 -16 -25 -37 -49 -60 -72 -156 -223 -254 -403 -154 -285 -224 -372 -346
-431 -72 -36 -186 -41 -209 -10 -46 64 33 119 122 86 24 -9 31 -7 53 15 20 20
24 29 15 43 -33 55 -182 75 -260 34 -49 -25 -88 -69 -104 -116 -20 -60 25
-136 105 -179 34 -19 56 -22 150 -22 122 1 177 16 271 77 59 38 184 164 239
242 l40 56 56 0 c192 1 395 75 524 192 39 36 55 44 63 36 16 -16 15 -28 -1
-28 -24 0 -59 -46 -53 -68 4 -13 -10 -62 -39 -134 -75 -184 -76 -238 -9 -297
55 -49 125 -40 183 23 l25 26 35 -34 c47 -45 72 -56 120 -56 117 0 218 101
301 299 32 77 52 103 67 88 3 -4 -13 -42 -35 -85 -73 -140 -74 -205 -3 -265
41 -35 76 -34 132 2 66 41 103 91 171 228 33 68 67 123 74 123 20 0 18 -6 -26
-90 -51 -99 -65 -159 -46 -203 17 -43 71 -87 104 -87 28 0 82 28 118 61 20 19
21 19 50 -12 72 -76 158 -80 257 -12 40 28 108 125 147 210 23 51 23 53 5 73
-37 41 -69 19 -124 -86 -43 -81 -89 -125 -132 -127 -33 -2 -34 -1 -37 44 l-3
46 59 21 c103 38 184 114 212 197 9 27 8 40 -4 64 -75 144 -272 55 -395 -180
-106 -201 -131 -211 -43 -17 77 172 77 169 51 203 -20 25 -27 27 -70 22 l-48
-6 15 35 c19 44 5 94 -33 124 -64 50 -104 12 -143 -139 -29 -111 -89 -253
-144 -339 -49 -77 -40 -37 22 100 77 172 77 169 51 203 -20 25 -27 27 -70 22
l-48 -6 15 35 c12 28 13 43 4 70 -12 37 -52 74 -80 74 -30 0 -69 -40 -80 -81
-5 -21 -15 -57 -20 -78 l-10 -39 -34 34 c-27 27 -42 34 -73 34 -102 0 -216
-102 -301 -272 -55 -109 -114 -186 -119 -158 -2 9 28 90 66 180 53 126 67 168
60 182 -8 14 -3 25 26 53 45 46 47 85 6 126 -18 17 -40 29 -55 29 -24 0 -26 3
-19 28 33 117 -42 241 -193 317 l-53 27 19 21 c25 26 25 39 2 60 -26 23 -42
21 -106 -12z m-6 -30 c-48 -25 -61 -27 -100 -20 l-45 8 46 -3 c33 -2 58 3 90
20 24 13 49 23 54 23 6 0 -15 -13 -45 -28z m56 -16 c-22 -19 -37 -37 -35 -39
2 -2 28 -14 58 -26 250 -98 291 -275 105 -457 -116 -114 -259 -167 -507 -189
l-77 -6 -51 -65 c-129 -164 -233 -253 -339 -289 -82 -28 -231 -26 -286 3 -52
28 -74 61 -74 114 0 35 6 47 35 75 20 18 51 36 71 40 39 7 139 1 169 -11 14
-6 17 -5 10 3 -5 5 -30 15 -55 21 l-45 11 44 -4 c26 -3 52 -12 64 -24 20 -20
19 -20 -62 -15 l-81 5 -35 -35 c-44 -44 -47 -91 -11 -130 31 -33 62 -41 141
-35 73 6 132 35 223 109 71 59 161 192 266 394 80 154 191 324 269 416 31 36
57 69 57 72 0 13 -195 18 -304 7 -146 -14 -246 -40 -353 -90 -128 -60 -174
-99 -220 -185 -52 -99 -26 -197 62 -231 60 -22 102 -13 159 37 44 39 94 115
82 126 -2 3 -12 -9 -21 -26 -8 -17 -18 -31 -21 -31 -3 0 3 15 13 33 27 46 57
43 61 -5 2 -21 -1 -45 -6 -54 -6 -12 -8 0 -6 37 3 49 2 50 -5 14 -13 -73 -58
-124 -130 -150 -112 -39 -235 5 -270 98 -16 41 -13 132 4 175 33 78 139 160
275 215 153 60 429 95 616 77 l109 -10 59 30 c77 39 90 37 42 -5z m-207 11
c-2 -2 -76 -5 -164 -8 -88 -2 -140 -1 -115 2 48 7 286 13 279 6z m227 -36 c0
-20 -7 -25 -19 -13 -4 3 -2 12 4 20 15 17 15 17 15 -7z m-711 -9 c-11 -5 -36
-11 -55 -14 -35 -6 -34 -6 5 8 43 14 84 19 50 6z m781 -37 c18 -14 18 -14 -6
-3 -31 14 -36 19 -24 19 6 0 19 -7 30 -16z m-473 -1 c-18 -2 -48 -2 -65 0 -18
2 -4 4 32 4 36 0 50 -2 33 -4z m200 -1 c3 -4 -6 -21 -20 -37 -24 -28 -25 -28
-9 -3 9 15 16 29 16 32 0 3 -30 7 -67 9 l-68 3 72 2 c39 1 74 -1 76 -6z m-310
-9 c-7 -2 -21 -2 -30 0 -10 3 -4 5 12 5 17 0 24 -2 18 -5z m647 -29 c0 -2 -9
0 -20 6 -11 6 -20 13 -20 16 0 2 9 0 20 -6 11 -6 20 -13 20 -16z m-880 -24
c-8 -5 -19 -10 -25 -10 -5 0 -3 5 5 10 8 5 20 10 25 10 6 0 3 -5 -5 -10z m925
-10 c10 -11 16 -20 13 -20 -3 0 -13 9 -23 20 -10 11 -16 20 -13 20 3 0 13 -9
23 -20z m-435 -4 c0 -2 -8 -10 -17 -17 -16 -13 -17 -12 -4 4 13 16 21 21 21
13z m-802 -53 c-78 -81 -107 -164 -87 -252 19 -85 75 -135 168 -151 39 -7 41
-8 13 -9 -121 -4 -217 122 -193 253 13 73 33 109 88 162 60 59 69 56 11 -3z
m192 13 c0 -2 -7 -7 -16 -10 -8 -3 -12 -2 -9 4 6 10 25 14 25 6z m580 0 c0 -2
-8 -10 -17 -17 -16 -13 -17 -12 -4 4 13 16 21 21 21 13z m-46 -61 c-9 -14 -18
-25 -21 -25 -5 0 5 18 20 38 17 22 18 13 1 -13z m-689 -90 c-16 -30 -25 -65
-25 -93 0 -59 48 -111 106 -113 35 -2 36 -2 9 -6 -65 -10 -125 51 -125 126 0
37 45 150 55 139 3 -2 -7 -26 -20 -53z m1272 33 c-3 -8 -6 -5 -6 6 -1 11 2 17
5 13 3 -3 4 -12 1 -19z m-657 -60 c-17 -29 -56 -99 -86 -155 -31 -57 -58 -103
-61 -103 -6 0 111 221 144 271 37 56 39 48 3 -13z m641 -15 c-12 -20 -14 -14
-5 12 4 9 9 14 11 11 3 -2 0 -13 -6 -23z m89 -53 c30 -30 26 -73 -11 -104 -17
-14 -40 -26 -52 -25 -16 1 -14 3 10 10 18 5 35 15 39 21 5 8 2 9 -12 4 -41
-17 -50 -17 -69 4 -18 20 -18 24 -4 48 34 61 106 50 96 -15 -4 -20 -2 -31 4
-28 11 8 12 55 0 73 -5 8 -24 18 -42 22 -32 7 -32 8 -6 9 15 1 36 -8 47 -19z
m527 -12 c31 -34 36 -62 18 -103 -8 -21 -15 -41 -15 -46 0 -4 24 -6 53 -4 l52
4 -47 -10 c-72 -17 -81 -9 -58 43 11 25 16 54 13 71 -9 47 -20 39 -15 -11 4
-44 1 -51 -31 -85 l-34 -37 88 0 c104 0 107 -5 63 -93 -82 -161 -115 -266 -90
-286 32 -27 76 22 156 173 51 95 120 285 120 331 0 13 7 31 16 40 25 25 58 -2
62 -50 3 -32 -2 -43 -34 -76 l-38 -39 71 0 c40 0 83 4 97 10 17 6 27 6 32 -2
4 -7 3 -8 -4 -4 -8 5 -12 0 -12 -13 0 -11 -24 -76 -54 -143 -80 -182 -89 -228
-44 -228 32 0 79 58 138 171 70 132 117 191 183 229 105 60 183 21 147 -74
-25 -66 -144 -156 -207 -156 -38 0 -53 -26 -53 -92 0 -90 37 -118 114 -88 41
15 105 89 142 162 19 38 39 68 44 68 15 0 -65 -154 -102 -196 -61 -70 -153
-92 -216 -54 -34 21 -62 71 -62 112 0 23 0 23 -18 -3 -49 -73 -102 -119 -138
-119 -12 0 -33 9 -48 21 -47 37 -34 121 38 247 20 35 36 70 36 77 0 20 -26 36
-68 42 l-38 5 -38 -93 c-71 -174 -152 -281 -225 -295 -23 -5 -35 -1 -55 19
-45 45 -33 119 41 250 18 33 33 65 33 72 0 20 -26 36 -68 42 l-38 5 -28 -73
c-73 -190 -152 -296 -237 -319 -84 -23 -160 18 -174 93 l-7 36 -32 -42 c-65
-85 -135 -109 -181 -62 -40 39 -34 94 26 243 27 70 48 137 46 150 -4 20 -1 22
44 22 39 0 49 -3 49 -16 0 -9 -29 -84 -65 -166 -67 -154 -80 -213 -49 -225 48
-18 114 52 183 192 50 102 108 177 165 210 130 76 212 11 137 -108 -33 -51
-102 -97 -180 -118 -25 -7 -49 -17 -53 -23 -15 -22 -9 -129 9 -148 32 -36 101
-20 156 37 65 67 169 294 197 430 17 84 26 98 57 90 16 -4 22 -2 18 5 -11 18
-43 11 -64 -16 -12 -15 -21 -23 -21 -18 0 15 43 54 60 54 9 0 26 -10 37 -22z
m-644 -15 c-6 -2 -9 -14 -8 -26 1 -13 1 -15 -2 -4 -4 15 -17 6 -72 -45 -36
-35 -91 -76 -121 -91 -59 -30 -52 -24 40 36 32 21 82 64 112 96 29 32 55 53
57 47 2 -5 -1 -12 -6 -13z m-1003 -16 c0 -2 -10 -12 -22 -23 l-23 -19 19 23
c18 21 26 27 26 19z m1547 -59 c-3 -7 -5 -2 -5 12 0 14 2 19 5 13 2 -7 2 -19
0 -25z m470 -10 c-3 -8 -6 -5 -6 6 -1 11 2 17 5 13 3 -3 4 -12 1 -19z m-1977
-2 c0 -2 -12 -12 -27 -21 l-28 -18 19 21 c17 20 36 29 36 18z m1413 -26 c29
-23 41 -59 28 -92 -8 -20 -9 -19 -9 12 1 53 -16 78 -60 85 -65 11 -68 13 -26
14 27 1 50 -6 67 -19z m956 10 c-57 -10 -98 -31 -152 -78 l-42 -36 39 42 c50
52 109 82 161 81 l40 -1 -46 -8z m-1109 -26 c-25 -14 -61 -40 -80 -57 -33 -30
-33 -30 -10 -3 27 31 107 86 124 86 6 0 -9 -12 -34 -26z m-247 9 c3 -5 -17 -8
-43 -8 -26 0 -46 3 -43 8 2 4 22 7 43 7 21 0 41 -3 43 -7z m818 -44 c-5 -13
-10 -19 -10 -12 -1 15 10 45 15 40 3 -2 0 -15 -5 -28z m222 24 c-7 -2 -19 -2
-25 0 -7 3 -2 5 12 5 14 0 19 -2 13 -5z m-1078 -198 c-38 -88 -65 -165 -62
-176 3 -11 1 -16 -5 -13 -16 10 -3 51 61 202 34 77 61 147 62 154 0 9 2 9 5 1
3 -6 -25 -82 -61 -168z m750 98 c-9 -15 -13 -19 -9 -8 3 11 9 31 12 45 4 18 7
20 10 8 2 -9 -4 -29 -13 -45z m-1035 37 c-8 -5 -19 -10 -25 -10 -5 0 -3 5 5
10 8 5 20 10 25 10 6 0 3 -5 -5 -10z m769 -29 c-6 -18 -13 -30 -15 -28 -2 2 1
18 7 36 6 18 13 30 15 28 2 -2 -1 -18 -7 -36z m-819 9 c-8 -5 -22 -9 -30 -9
-10 0 -8 3 5 9 27 12 43 12 25 0z m877 -29 c-12 -22 -23 -38 -24 -37 -6 6 28
76 36 76 5 0 0 -18 -12 -39z m67 33 c24 -9 20 -31 -19 -102 -41 -73 -65 -154
-59 -198 l4 -29 -10 30 c-13 39 9 117 56 202 40 72 41 81 12 93 -13 5 -18 9
-11 9 6 1 18 -2 27 -5z m329 -1 c-7 -2 -19 -2 -25 0 -7 3 -2 5 12 5 14 0 19
-2 13 -5z m-1053 -112 c-67 -171 -54 -244 45 -260 l50 -9 -41 -1 c-79 -2 -124
66 -104 156 11 48 80 226 86 220 2 -2 -14 -50 -36 -106z m282 96 c-6 -6 -22
-32 -36 -57 -14 -25 -26 -40 -26 -34 0 13 57 104 66 104 4 0 2 -6 -4 -13z
m-555 -3 c-3 -3 -12 -4 -19 -1 -8 3 -5 6 6 6 11 1 17 -2 13 -5z m1348 -43
c-22 -44 -27 -38 -7 9 9 21 18 35 20 30 2 -5 -4 -22 -13 -39z m225 29 c-6 -11
-13 -20 -16 -20 -2 0 0 9 6 20 6 11 13 20 16 20 2 0 0 -9 -6 -20z m-761 -31
c-24 -34 -90 -80 -142 -98 -17 -7 -45 -19 -60 -27 -21 -10 -28 -11 -25 -2 3 7
31 22 64 33 76 26 128 59 155 96 11 16 23 29 25 29 3 0 -5 -14 -17 -31z
m-1266 -9 c-9 -17 -28 -43 -41 -58 -13 -15 -6 -1 14 31 38 59 58 79 27 27z
m214 21 c-44 -5 -63 -12 -80 -32 -23 -26 -14 -7 12 24 11 13 28 17 70 16 l56
-2 -58 -6z m1773 -51 c-11 -22 -23 -40 -25 -40 -3 0 4 18 15 40 11 22 23 40
25 40 3 0 -4 -18 -15 -40z m-360 -19 c-28 -56 -35 -52 -8 4 12 24 23 43 26 41
2 -2 -6 -22 -18 -45z m274 12 c-48 -110 -64 -150 -64 -165 0 -24 9 -23 39 5
l25 22 -16 -25 c-20 -32 -58 -40 -58 -12 0 32 72 212 85 212 3 0 -2 -17 -11
-37z m-553 0 c-12 -20 -14 -14 -5 12 4 9 9 14 11 11 3 -2 0 -13 -6 -23z m-85
-42 c-15 -28 -28 -51 -31 -51 -3 0 7 25 22 55 15 30 29 53 31 51 2 -2 -8 -27
-22 -55z m437 44 c-3 -9 -8 -14 -10 -11 -3 3 -2 9 2 15 9 16 15 13 8 -4z
m-478 -64 c-45 -86 -82 -122 -127 -124 -32 -2 -33 -1 -36 44 l-3 46 59 21 c32
12 77 35 98 51 21 16 40 30 42 30 2 1 -13 -30 -33 -68z m523 -3 c-59 -156 29
-257 141 -162 17 14 31 21 31 15 0 -18 -74 -61 -106 -61 -40 0 -80 31 -94 75
-9 28 -8 46 5 92 17 57 32 93 39 93 2 0 -5 -24 -16 -52z m-2248 30 c-54 -15
-87 -44 -106 -93 -9 -25 -19 -43 -21 -41 -3 2 4 24 15 49 25 56 78 96 127 95
11 0 4 -4 -15 -10z m1816 -45 c-14 -26 -25 -45 -26 -41 0 12 43 98 48 94 2 -2
-8 -26 -22 -53z m199 -9 c-28 -67 -31 -90 -12 -97 7 -3 4 -6 -7 -6 -16 -1 -18
4 -13 33 6 35 47 139 53 133 2 -2 -8 -30 -21 -63z m156 19 c-10 -21 -27 -47
-35 -58 -9 -11 -2 8 16 42 18 34 34 60 36 58 2 -2 -6 -20 -17 -42z m519 32
c-14 -8 -29 -14 -35 -14 -5 0 1 6 15 14 14 8 30 14 35 14 6 0 -1 -6 -15 -14z
m-1281 -55 c-13 -22 -36 -55 -51 -73 -16 -18 -7 1 19 40 53 81 66 94 32 33z
m-1028 -24 c-29 -29 -70 -63 -92 -75 -54 -31 -49 -21 9 17 26 17 65 49 87 71
21 23 41 41 44 41 3 0 -18 -24 -48 -54z m1704 24 c-9 -16 -18 -30 -21 -30 -2
0 2 14 11 30 9 17 18 30 21 30 2 0 -2 -13 -11 -30z m-1920 9 c20 -5 9 -6 -30
-2 -33 3 -62 7 -64 9 -8 7 63 2 94 -7z m-128 -19 c-37 -29 -43 -67 -17 -104
l21 -31 -26 29 c-20 22 -25 35 -20 55 7 28 42 71 58 71 5 0 -2 -9 -16 -20z
m1500 -52 c-2 -13 -4 -5 -4 17 -1 22 1 32 4 23 2 -10 2 -28 0 -40z m1047 -48
c4 -8 0 -6 -8 4 -10 12 -15 37 -15 60 l2 41 6 -45 c4 -25 10 -52 15 -60z m119
30 c-23 -22 -48 -40 -55 -40 -7 0 1 8 17 19 17 10 39 28 49 40 11 11 22 21 25
21 3 0 -13 -18 -36 -40z m-2203 26 c0 -2 -8 -10 -17 -17 -16 -13 -17 -12 -4 4
13 16 21 21 21 13z m1168 -31 c-21 -19 -43 -35 -50 -35 -7 0 1 8 17 18 17 11
36 26 44 35 7 10 16 17 20 17 3 0 -11 -16 -31 -35z m-223 -25 c9 -17 30 -40
48 -50 18 -11 26 -20 18 -20 -8 0 -32 19 -53 41 l-40 41 -36 -33 c-37 -34 -37
-34 3 9 21 23 40 42 42 42 1 0 10 -14 18 -30z m284 -6 c-34 -36 -87 -69 -95
-61 -3 2 8 10 24 16 16 7 44 28 63 47 18 19 35 34 38 34 3 0 -11 -16 -30 -36z
m745 8 c19 -36 37 -51 83 -68 23 -8 30 -13 18 -14 -28 0 -81 34 -102 67 -10
15 -22 31 -28 35 -6 5 -6 8 2 8 7 0 19 -13 27 -28z m-2587 -4 c-3 -8 -6 -5 -6
6 -1 11 2 17 5 13 3 -3 4 -12 1 -19z m1667 6 c3 -8 2 -12 -4 -9 -6 3 -10 10
-10 16 0 14 7 11 14 -7z m546 13 c0 -2 -12 -14 -27 -28 l-28 -24 24 28 c23 25
31 32 31 24z m-1666 -18 c-9 -16 -105 -75 -134 -83 -14 -4 4 9 40 29 35 19 71
42 79 50 18 18 25 19 15 4z m2326 -2 c0 -2 -12 -14 -27 -28 l-28 -24 24 28
c23 25 31 32 31 24z m-855 -37 c10 -11 16 -20 13 -20 -3 0 -13 9 -23 20 -10
11 -16 20 -13 20 3 0 13 -9 23 -20z m-1984 -17 c13 -16 12 -17 -3 -4 -10 7
-18 15 -18 17 0 8 8 3 21 -13z m2079 -3 c-8 -5 -28 -9 -45 -9 -30 2 -30 2 5 9
51 11 57 11 40 0z m-443 -16 c-3 -3 -12 -4 -19 -1 -8 3 -5 6 6 6 11 1 17 -2
13 -5z m56 -1 c-7 -2 -19 -2 -25 0 -7 3 -2 5 12 5 14 0 19 -2 13 -5z m1030 0
c-7 -2 -19 -2 -25 0 -7 3 -2 5 12 5 14 0 19 -2 13 -5z m-2576 -39 c-3 -3 -12
-4 -19 -1 -8 3 -5 6 6 6 11 1 17 -2 13 -5z m110 0 c-3 -3 -12 -4 -19 -1 -8 3
-5 6 6 6 11 1 17 -2 13 -5z"/>
<path d="M1232 1052 c-28 -43 -109 -181 -180 -305 l-130 -227 37 0 c115 0 253
45 363 117 194 127 258 322 135 416 -42 32 -105 63 -143 71 -30 7 -33 4 -82
-72z m78 49 c-17 -5 -41 -32 -75 -88 -58 -94 -83 -123 -39 -46 57 100 92 143
116 142 22 -1 22 -1 -2 -8z m117 -44 c17 -12 30 -24 27 -26 -2 -2 -12 3 -21
11 -10 9 -31 23 -48 32 -16 10 -21 14 -10 11 11 -3 34 -16 52 -28z m-43 -5
c69 -38 91 -71 90 -135 -1 -122 -122 -247 -301 -310 -67 -24 -173 -46 -173
-35 0 7 240 424 270 470 30 45 48 47 114 10z m123 -144 c-3 -8 -6 -5 -6 6 -1
11 2 17 5 13 3 -3 4 -12 1 -19z m-347 -18 c-6 -11 -13 -20 -16 -20 -2 0 0 9 6
20 6 11 13 20 16 20 2 0 0 -9 -6 -20z m-40 -70 c-6 -11 -13 -20 -16 -20 -2 0
0 9 6 20 6 11 13 20 16 20 2 0 0 -9 -6 -20z m320 -59 c-29 -42 -100 -102 -151
-129 -24 -12 -36 -17 -25 -10 76 52 141 105 163 134 31 42 42 45 13 5z m-365
-21 c-9 -16 -18 -30 -21 -30 -2 0 2 14 11 30 9 17 18 30 21 30 2 0 -2 -13 -11
-30z m-42 -75 c-3 -9 -8 -14 -10 -11 -3 3 -2 9 2 15 9 16 15 13 8 -4z m-41
-72 c-11 -21 -17 -44 -15 -50 3 -7 0 -13 -6 -13 -17 0 -13 25 10 64 28 47 34
46 11 -1z m228 3 c-14 -7 -36 -16 -50 -20 -14 -3 -7 3 15 13 45 22 73 27 35 7z"/>
<path d="M1917 551 c-47 -45 -125 -156 -116 -165 2 -2 27 4 54 12 60 20 127
83 145 136 26 79 -9 87 -83 17z m72 7 c0 -22 -1 -22 -9 -3 -7 18 -12 15 -58
-32 -57 -58 -80 -93 -61 -93 22 0 78 41 98 73 11 18 21 28 21 24 0 -31 -102
-117 -139 -117 -19 0 16 58 72 117 54 57 77 66 76 31z m-45 -46 c-14 -25 -54
-60 -54 -47 0 6 61 75 67 75 2 0 -3 -13 -13 -28z"/>
<path d="M2954 558 c-47 -44 -124 -148 -124 -168 0 -20 93 17 139 56 38 32 73
97 69 127 -5 36 -34 31 -84 -15z m65 0 c0 -19 -2 -20 -7 -5 -7 16 -9 16 -30 1
-26 -18 -102 -111 -102 -125 0 -5 14 -3 30 6 17 9 30 13 30 11 0 -9 -61 -38
-67 -32 -11 11 12 50 64 106 58 63 83 75 82 38z m-45 -46 c-14 -25 -54 -60
-54 -47 0 6 61 75 67 75 2 0 -3 -13 -13 -28z"/>
</g>
</svg>
