<?xml version="1.0" standalone="no"?>
<!DOCTYPE svg PUBLIC "-//W3C//DTD SVG 20010904//EN"
 "http://www.w3.org/TR/2001/REC-SVG-20010904/DTD/svg10.dtd">
<svg version="1.0" xmlns="http://www.w3.org/2000/svg"
 width="358.000000pt" height="108.000000pt" viewBox="0 0 358.000000 108.000000"
 preserveAspectRatio="xMidYMid meet">

<g transform="translate(0.000000,108.000000) scale(0.100000,-0.100000)"
fill="#000000" stroke="none">
<path d="M1007 991 l-24 -29 -37 25 c-35 25 -37 26 -56 8 -22 -20 -26 -55 -8
-73 9 -9 9 -17 -2 -36 -10 -19 -10 -29 -1 -39 9 -11 8 -17 -4 -27 -34 -28 -38
-50 -14 -76 16 -17 29 -22 43 -18 15 4 11 -3 -14 -24 l-35 -30 -18 55 c-32 98
-101 183 -182 226 -33 17 -58 21 -135 20 -183 0 -383 -13 -396 -24 -24 -20
-16 -55 21 -88 20 -17 43 -31 52 -31 15 0 15 -18 10 -177 -8 -208 -21 -334
-48 -457 l-19 -90 22 -23 c20 -22 29 -23 148 -23 113 0 129 2 144 19 17 19 17
24 -3 109 -29 124 -29 123 17 106 56 -20 111 -17 169 10 59 28 133 92 165 144
l21 35 -32 29 c-17 16 -29 32 -27 37 12 19 64 4 101 -28 29 -25 45 -32 66 -29
16 3 29 1 29 -3 0 -48 -25 -234 -41 -302 l-21 -89 23 -24 c21 -22 30 -24 120
-24 88 0 101 2 125 23 l27 24 -16 59 c-16 58 -40 234 -51 364 l-5 65 38 23
c20 13 43 33 50 44 11 18 9 24 -16 52 -15 17 -24 28 -19 23 11 -8 56 31 56 49
0 6 -8 22 -19 35 -15 18 -16 27 -7 42 9 15 7 22 -15 41 l-26 23 20 27 c18 26
19 28 2 46 -22 24 -48 25 -79 4 -16 -10 -26 -12 -31 -5 -3 6 -14 15 -25 21
-15 8 -23 4 -43 -19z m-61 -27 c18 -14 18 -14 -6 -3 -31 14 -36 19 -24 19 6 0
19 -7 30 -16z m113 -49 c11 -44 11 -44 59 -47 l47 -3 -36 -22 c-45 -28 -62
-29 -30 -3 l23 20 -29 0 c-23 0 -33 7 -43 28 l-13 27 -9 -27 c-7 -21 -16 -28
-36 -28 l-27 -1 23 -19 c20 -16 21 -22 12 -40 -14 -27 -6 -37 15 -20 12 10 21
10 40 2 14 -7 25 -16 25 -22 0 -13 -6 -13 -29 2 -15 9 -24 7 -47 -11 -33 -26
-41 -15 -25 31 6 17 10 32 9 33 -2 1 -16 11 -32 23 -31 24 -52 29 -40 10 4 -7
3 -8 -5 -4 -22 14 0 26 48 26 l48 0 13 44 c7 25 9 50 4 58 -6 11 -5 11 8 0 9
-7 21 -32 27 -57z m64 19 c-29 -39 -43 -39 -18 0 9 14 14 29 11 35 -3 5 3 7
14 4 18 -5 18 -7 -7 -39z m-510 15 c23 -5 53 -19 67 -30 22 -17 20 -17 -25 3
-55 25 -132 28 -325 16 -95 -6 -97 -6 -25 2 44 5 87 11 95 14 32 8 173 6 213
-5z m296 -6 c1 23 6 22 47 -10 43 -35 44 -49 2 -23 -41 25 -55 26 -37 3 11
-15 10 -14 -9 1 -12 11 -22 26 -21 35 0 12 3 11 9 -4 7 -17 9 -17 9 -2z m181
3 c-7 -7 -13 -7 -20 0 -6 6 -3 10 10 10 13 0 16 -4 10 -10z m-482 -18 c64 -16
141 -93 169 -168 28 -77 35 -110 23 -110 -5 0 -10 9 -10 20 0 14 -7 20 -21 20
-14 0 -18 -4 -12 -12 19 -30 2 -59 -29 -50 -20 5 -20 5 -2 19 19 14 18 14 -1
11 -12 -2 -20 3 -21 12 -7 91 -52 176 -114 213 l-35 21 29 -30 c40 -40 63 -97
71 -176 5 -56 4 -68 -8 -68 -11 0 -18 20 -27 68 -6 37 -20 86 -30 109 -33 75
-125 101 -226 63 l-25 -10 5 -129 c4 -83 2 -132 -4 -136 -6 -4 -5 -14 5 -28 8
-12 15 -37 16 -57 l1 -35 8 33 c16 68 83 107 136 79 l27 -14 -49 -6 c-63 -7
-88 -35 -81 -91 3 -21 15 -51 26 -67 18 -24 18 -28 5 -33 -21 -8 -33 1 -51 38
-16 35 -16 43 4 -123 5 -44 3 -53 -8 -49 -8 2 -16 15 -18 29 -1 13 -7 26 -11
29 -16 10 -40 84 -40 124 0 30 -3 37 -10 26 -5 -8 -10 -27 -10 -41 0 -26 -16
-39 -47 -39 -13 0 -14 8 -9 43 4 23 14 52 22 65 8 12 10 22 4 22 -5 0 -10 24
-10 54 0 49 2 54 20 49 11 -3 20 -9 20 -14 0 -15 18 -10 24 8 4 9 2 21 -4 27
-5 5 -10 48 -10 95 0 46 -3 81 -6 78 -4 -3 -6 -42 -5 -87 2 -74 0 -80 -19 -80
-19 0 -19 4 -14 80 9 110 1 146 -34 155 -33 8 -72 32 -72 45 0 5 42 9 93 10
50 0 117 4 147 9 81 13 165 13 218 -1z m526 -23 c-4 -8 -11 -15 -16 -15 -6 0
-5 6 2 15 7 8 14 15 16 15 2 0 1 -7 -2 -15z m-973 -32 c13 -16 12 -17 -3 -4
-10 7 -18 15 -18 17 0 8 8 3 21 -13z m269 -16 c0 -24 -31 -57 -53 -56 -19 0
-19 2 6 11 15 5 27 16 27 24 0 17 -22 18 -38 2 -9 -9 -12 -9 -12 0 0 14 29 31
53 32 9 0 17 -6 17 -13z m45 -28 c5 -13 16 -19 37 -19 l31 0 -22 -24 c-22 -23
-22 -25 -6 -56 16 -32 16 -33 -1 -25 -44 17 -56 17 -75 -4 -11 -12 -17 -26
-13 -33 4 -6 3 -8 -4 -4 -6 4 -8 21 -5 42 5 28 1 40 -17 59 -19 20 -20 25 -7
25 24 0 47 28 47 57 0 21 2 23 15 13 8 -6 17 -20 20 -31z m57 24 c24 -22 23
-33 -4 -33 -22 0 -58 26 -58 42 0 14 43 9 62 -9z m-295 -45 c-3 -8 -6 -5 -6 6
-1 11 2 17 5 13 3 -3 4 -12 1 -19z m808 4 c-3 -3 -11 0 -18 7 -9 10 -8 11 6 5
10 -3 15 -9 12 -12z m-85 -7 c0 -5 -55 -35 -65 -35 -4 0 -5 6 -3 12 5 14 68
36 68 23z m145 -32 c4 -14 2 -23 -4 -23 -6 0 -11 6 -11 14 0 8 -3 23 -6 33 -5
12 -4 15 3 8 6 -5 14 -20 18 -32z m74 21 c1 -1 1 -7 0 -13 -2 -5 -15 -1 -29
10 l-25 20 25 -7 c14 -3 27 -8 29 -10z m-942 -91 c-2 -16 -4 -3 -4 27 0 30 2
43 4 28 2 -16 2 -40 0 -55z m162 33 c0 -7 -2 -6 -6 2 -10 26 -23 10 -25 -30
l-1 -43 -4 39 c-6 52 2 72 22 56 8 -7 15 -18 14 -24z m169 -7 c-3 -8 -7 -3
-11 10 -4 17 -3 21 5 13 5 -5 8 -16 6 -23z m482 -15 c0 -14 -4 -22 -10 -19 -5
3 -10 17 -10 31 0 14 4 22 10 19 6 -3 10 -17 10 -31z m-470 -80 l0 -56 -35 31
c-26 23 -46 31 -72 31 -34 0 -36 1 -21 16 14 14 22 15 49 5 29 -10 36 -9 53 9
11 11 22 20 23 20 2 0 3 -25 3 -56z m247 24 c-3 -8 -6 -5 -6 6 -1 11 2 17 5
13 3 -3 4 -12 1 -19z m313 -8 c0 -5 -5 -10 -11 -10 -5 0 -7 5 -4 10 3 6 8 10
11 10 2 0 4 -4 4 -10z m-735 -20 c3 -5 1 -10 -4 -10 -6 0 -11 5 -11 10 0 6 2
10 4 10 3 0 8 -4 11 -10z m50 -21 c-22 -5 -44 -14 -49 -19 -6 -6 -15 -10 -20
-10 -6 0 3 9 19 20 17 11 44 19 60 19 27 -1 26 -2 -10 -10z m187 -61 c-6 -6
-14 -9 -17 -6 -3 3 -3 13 1 22 5 12 10 14 17 7 8 -8 8 -14 -1 -23z m-197 -18
c-10 -11 -20 -18 -23 -15 -7 6 18 35 31 35 5 0 2 -9 -8 -20z m102 14 c-3 -3
-12 -4 -19 -1 -8 3 -5 6 6 6 11 1 17 -2 13 -5z m-72 -33 c-3 -5 -1 -12 5 -16
15 -9 12 -25 -6 -25 -8 0 -12 -5 -8 -11 3 -6 17 -9 30 -6 37 7 35 -18 -3 -32
-24 -9 -38 -10 -45 -3 -8 8 -4 9 13 5 l24 -5 -22 16 c-22 16 -32 64 -16 79 10
11 35 8 28 -2z m-253 -101 c-2 -16 -6 -30 -8 -30 -2 0 -4 14 -4 30 0 17 4 30
8 30 5 0 7 -13 4 -30z m358 -9 c0 -5 -7 -11 -15 -15 -15 -5 -20 5 -8 17 9 10
23 9 23 -2z m58 -49 c3 -11 -44 -29 -54 -19 -8 7 27 38 39 34 6 -2 12 -8 15
-15z m-229 -45 c-1 -40 -2 -40 -9 -12 -11 44 -11 67 0 60 6 -3 9 -25 9 -48z
m226 13 c-3 -5 -14 -10 -23 -10 -15 0 -15 2 -2 10 20 13 33 13 25 0z m361 -55
c-10 -19 -11 -19 -14 3 -2 13 0 31 3 40 6 15 8 15 15 -3 4 -11 3 -29 -4 -40z
m-29 23 c-3 -8 -6 -5 -6 6 -1 11 2 17 5 13 3 -3 4 -12 1 -19z m168 -132 l7
-39 -25 16 c-13 8 -37 17 -52 19 l-29 3 40 26 c21 15 42 24 45 20 4 -3 10 -24
14 -45z m12 22 c-3 -8 -6 -5 -6 6 -1 11 2 17 5 13 3 -3 4 -12 1 -19z"/>
<path d="M437 798 c-14 -14 -16 -23 -7 -32 5 -8 8 -21 4 -30 -7 -18 11 -22 21
-6 4 6 15 8 25 5 15 -5 17 0 15 25 -1 17 -11 37 -21 44 -16 11 -22 10 -37 -6z"/>
<path d="M490 851 c0 -5 7 -12 16 -15 24 -9 28 -7 14 9 -14 17 -30 20 -30 6z"/>
<path d="M1392 703 c-60 -21 -144 -102 -173 -165 -21 -46 -24 -68 -24 -168 0
-106 2 -120 28 -172 30 -60 80 -108 142 -134 56 -23 341 -10 371 18 20 18 20
22 9 73 -7 29 -16 86 -20 127 -4 40 -12 79 -17 86 -8 9 -6 18 7 32 9 10 20 40
23 66 l5 46 13 -30 c7 -17 10 -39 8 -49 -3 -11 3 -27 15 -37 18 -16 25 -17 47
-7 l26 12 -6 -68 c-4 -37 -17 -107 -28 -155 -20 -85 -21 -89 -3 -108 16 -18
31 -20 130 -20 103 0 113 2 133 23 20 21 20 25 6 77 -19 75 -18 90 7 90 12 0
39 18 61 40 38 37 40 44 36 83 l-5 44 42 11 c28 7 54 25 79 52 21 23 39 40 40
38 13 -20 24 -60 20 -75 -3 -11 3 -26 15 -37 18 -16 25 -17 47 -7 l26 12 -6
-68 c-4 -37 -17 -107 -28 -155 -20 -85 -21 -89 -3 -108 16 -18 31 -20 130 -20
103 0 113 2 133 22 20 22 20 26 6 78 -19 75 -18 90 7 90 12 0 39 18 61 40 38
37 40 43 36 84 -5 44 -5 44 29 51 18 3 48 19 66 34 l32 29 0 -112 c0 -101 2
-116 28 -168 30 -60 80 -108 142 -134 56 -23 341 -10 371 18 20 18 20 22 9 73
-7 29 -16 86 -20 127 -4 40 -12 79 -17 86 -8 9 -5 18 8 33 47 52 8 198 -70
267 -96 84 -249 68 -358 -38 -59 -57 -68 -61 -68 -29 0 26 -59 89 -97 106 -27
11 -55 11 -153 2 -85 -8 -139 -9 -190 -1 -78 12 -113 5 -161 -28 l-30 -22 -22
20 c-41 38 -70 43 -197 31 -85 -8 -140 -9 -190 -1 -45 7 -82 7 -105 1 -34 -10
-95 -61 -95 -81 0 -6 -20 8 -44 30 -24 22 -61 45 -82 51 -53 15 -131 12 -182
-6z m131 -10 c-7 -2 -21 -2 -30 0 -10 3 -4 5 12 5 17 0 24 -2 18 -5z m1784 -8
c42 -18 70 -40 85 -69 8 -14 7 -17 -3 -11 -9 6 -11 2 -7 -13 7 -24 -6 -39 -17
-21 -4 6 -15 -3 -27 -23 -11 -18 -22 -35 -24 -37 -8 -8 -33 34 -34 55 0 40
-33 67 -88 74 -40 5 -52 3 -52 -7 0 -8 -7 -16 -15 -19 -8 -4 -15 -12 -15 -20
0 -8 -8 -14 -17 -14 -14 0 -15 -2 -4 -9 11 -7 11 -13 -3 -32 -13 -19 -16 -20
-16 -6 0 22 -20 22 -21 0 0 -11 -3 -13 -6 -5 -2 6 -9 12 -14 12 -6 0 -7 -5 -3
-11 3 -6 0 -15 -7 -20 -10 -6 -11 -9 -1 -9 7 0 4 -8 -8 -20 -29 -29 -32 -25
-26 26 5 48 13 62 61 108 47 44 91 59 172 58 74 -1 102 -10 141 -45 12 -11 22
-15 22 -9 0 24 -77 63 -141 71 -62 8 -63 8 -16 10 26 0 64 -6 84 -14z m-610
-1 c-3 -3 -12 -4 -19 -1 -8 3 -5 6 6 6 11 1 17 -2 13 -5z m-1090 -34 c21 -13
57 -63 69 -93 6 -15 3 -18 -17 -15 -18 2 -23 -1 -21 -14 2 -13 -4 -18 -23 -18
-17 0 -25 5 -25 18 0 14 -2 15 -10 2 -9 -13 -10 -13 -11 0 -1 8 -1 18 0 22 0
4 -4 19 -9 33 -7 18 -6 25 3 25 27 1 -61 32 -97 34 -22 1 -42 8 -44 16 -3 9 4
11 27 8 18 -3 34 -2 36 2 6 10 99 -6 122 -20z m390 24 c-3 -3 -12 -4 -19 -1
-8 3 -5 6 6 6 11 1 17 -2 13 -5z m600 0 c-3 -3 -12 -4 -19 -1 -8 3 -5 6 6 6
11 1 17 -2 13 -5z m503 -4 c-8 -5 -19 -10 -25 -10 -5 0 -3 5 5 10 8 5 20 10
25 10 6 0 3 -5 -5 -10z m-1210 -8 c0 -4 46 -7 102 -5 71 2 98 -1 91 -8 -6 -6
-29 -13 -52 -16 -43 -6 -70 -26 -51 -38 20 -12 11 -43 -15 -49 -17 -4 -25 -13
-25 -27 0 -14 5 -19 13 -16 8 3 20 1 28 -4 8 -5 10 -9 4 -10 -43 -6 -57 -4
-62 8 -5 12 -7 12 -14 1 -5 -8 -9 16 -9 60 l0 72 -30 0 c-33 0 -35 -3 -20 -31
8 -13 7 -19 0 -19 -6 0 -9 -4 -6 -9 9 -13 -21 -33 -49 -33 -57 0 -75 63 -30
107 19 20 34 25 75 25 27 0 50 -4 50 -8z m327 -9 c0 -7 -5 -13 -11 -14 -13 -1
-45 -6 -66 -11 -8 -2 -21 -7 -28 -12 -22 -13 -26 3 -7 24 10 12 25 18 32 16 7
-3 15 -1 18 5 9 14 62 7 62 -8z m209 -11 c-9 -9 -37 8 -31 18 5 8 11 7 21 -1
8 -6 12 -14 10 -17z m138 15 c26 0 46 -5 46 -11 0 -8 3 -8 8 0 7 11 92 29 92
19 0 -13 -67 -36 -96 -33 -19 2 -34 1 -34 -3 0 -4 -9 -9 -20 -12 -13 -3 -20 0
-20 9 0 8 -7 15 -15 15 -8 1 -21 2 -27 3 -7 1 -19 -2 -25 -7 -9 -7 -13 -4 -13
7 0 10 -4 15 -9 11 -5 -3 -13 0 -16 6 -5 7 6 9 38 4 25 -4 66 -7 91 -8z m292
-4 c19 -12 22 -18 12 -24 -10 -7 -9 -9 4 -9 11 0 19 -11 23 -34 9 -48 -2 -76
-29 -76 -15 0 -26 -9 -33 -27 l-11 -28 -1 27 c-1 15 4 30 9 33 16 10 12 77 -7
97 -9 10 -30 18 -47 18 -33 0 -96 -33 -96 -50 0 -5 -7 -10 -15 -10 -18 0 -19
19 -2 41 41 54 142 76 193 42z m-518 -13 c-7 -11 -17 -20 -22 -20 -5 0 -1 9 9
20 10 11 20 20 22 20 2 0 -2 -9 -9 -20z m-68 0 c0 -5 -4 -10 -10 -10 -5 0 -10
5 -10 10 0 6 5 10 10 10 6 0 10 -4 10 -10z m108 -17 c-2 -20 -9 -29 -25 -31
-18 -3 -22 0 -16 15 17 47 46 58 41 16z m-973 -1 c-3 -3 -11 0 -18 7 -9 10 -8
11 6 5 10 -3 15 -9 12 -12z m-45 -7 c0 -8 6 -14 13 -12 7 1 11 -7 10 -18 -1
-11 -3 -50 -4 -88 -2 -70 -14 -91 -46 -85 -13 2 -18 12 -18 33 0 25 -4 30 -28
33 -24 3 -28 7 -25 30 2 16 9 27 18 27 26 1 38 14 45 48 4 17 9 35 12 40 7 13
23 8 23 -8z m1885 -6 c4 -6 5 -12 2 -15 -7 -7 -37 7 -37 17 0 13 27 11 35 -2z
m-667 -87 c1 -36 17 -62 38 -62 14 0 17 -20 18 -112 1 -34 -2 -44 -11 -37 -8
8 -10 -1 -6 -32 6 -41 6 -41 -18 -29 -13 7 -30 19 -37 27 -19 19 -39 16 -63
-8 l-22 -22 6 59 c4 32 9 100 13 149 5 70 11 95 26 112 19 20 21 21 38 5 9 -9
18 -32 18 -50z m215 45 c12 -19 12 -26 2 -40 -17 -24 -31 -21 -30 6 0 12 -4
22 -10 22 -10 0 -11 -4 -14 -32 0 -7 -5 -13 -10 -13 -13 0 0 54 17 68 22 17
27 15 45 -11z m-1339 -3 c-7 -3 -10 -15 -7 -27 5 -22 5 -22 -10 -2 -22 27 -21
35 6 34 12 0 17 -3 11 -5z m1718 -2 c-8 -5 -10 -16 -6 -28 4 -10 5 -17 3 -14
-2 3 -13 15 -23 28 l-19 22 29 0 c19 0 24 -3 16 -8z m-1752 -58 c0 -15 -6 -24
-15 -24 -15 0 -21 40 -9 53 12 11 24 -3 24 -29z m776 25 c9 -16 -12 -33 -31
-25 -14 5 -15 9 -5 21 15 18 26 19 36 4z m-506 -9 c0 -5 -2 -10 -4 -10 -3 0
-8 5 -11 10 -3 6 -1 10 4 10 6 0 11 -4 11 -10z m160 0 c0 -5 -2 -10 -4 -10 -3
0 -8 5 -11 10 -3 6 -1 10 4 10 6 0 11 -4 11 -10z m-205 -30 c3 -5 2 -10 -4
-10 -5 0 -13 5 -16 10 -3 6 -2 10 4 10 5 0 13 -4 16 -10z m238 3 c-7 -2 -19
-2 -25 0 -7 3 -2 5 12 5 14 0 19 -2 13 -5z m867 -9 c0 -8 -5 -12 -10 -9 -6 4
-8 11 -5 16 9 14 15 11 15 -7z m-547 -1 c-7 -2 -21 -2 -30 0 -10 3 -4 5 12 5
17 0 24 -2 18 -5z m-513 -22 c0 -15 -5 -18 -22 -13 -19 5 -20 7 -5 10 9 2 17
8 17 13 0 5 2 9 5 9 3 0 5 -9 5 -19z m407 0 c10 -16 9 -20 -8 -24 -15 -4 -19
0 -19 19 0 29 11 31 27 5z m348 -8 c13 2 26 -1 28 -7 8 -24 7 -113 -3 -141 -8
-26 -9 -22 -5 21 6 61 -1 84 -25 84 -29 0 -50 11 -50 27 0 8 5 11 10 8 6 -3
11 4 11 17 1 18 2 19 6 5 3 -14 12 -18 28 -14z m252 8 c10 -16 9 -20 -8 -24
-15 -4 -19 0 -19 19 0 29 11 31 27 5z m-1242 -11 c4 -6 -8 -10 -30 -10 -22 0
-34 4 -30 10 3 6 17 10 30 10 13 0 27 -4 30 -10z m1204 -48 c0 -24 -1 -25 -9
-7 -12 28 -12 47 0 40 6 -3 10 -18 9 -33z m-1199 -35 c0 -2 -11 -14 -25 -27
l-25 -23 0 26 c0 22 5 27 25 27 14 0 25 -1 25 -3z m1720 0 c0 -2 -11 -14 -25
-27 l-25 -23 0 26 c0 22 5 27 25 27 14 0 25 -1 25 -3z m-1904 -80 c3 -8 0 -27
-6 -43 -10 -26 -12 -27 -22 -11 -11 21 -3 67 13 67 5 0 12 -6 15 -13z m-49
-39 c-3 -8 -6 -5 -6 6 -1 11 2 17 5 13 3 -3 4 -12 1 -19z m2190 -104 c-2 -2
-17 2 -33 11 -16 8 -34 15 -41 15 -7 0 -17 9 -23 20 -9 16 -7 20 12 24 67 15
73 13 81 -27 5 -22 7 -41 4 -43z m21 35 c-3 -8 -7 -3 -11 10 -4 17 -3 21 5 13
5 -5 8 -16 6 -23z m-2138 -3 c0 -8 6 -16 13 -19 6 -2 9 -7 6 -11 -3 -3 -16 5
-29 19 -19 21 -21 25 -7 25 9 0 17 -6 17 -14z m1730 -12 c0 -14 -3 -14 -15 -4
-8 7 -15 14 -15 16 0 2 7 4 15 4 8 0 15 -7 15 -16z m182 -39 c8 3 25 2 38 -3
22 -8 22 -9 -9 -22 -29 -12 -125 -9 -139 4 -2 3 -2 16 2 30 l6 25 44 -20 c24
-10 50 -17 58 -14z m-34 -52 c-10 -2 -28 -2 -40 0 -13 2 -5 4 17 4 22 1 32 -1
23 -4z m59 1 c-3 -3 -12 -4 -19 -1 -8 3 -5 6 6 6 11 1 17 -2 13 -5z"/>
<path d="M1601 563 c0 -5 4 -17 9 -28 8 -18 9 -17 9 8 1 15 -3 27 -9 27 -5 0
-10 -3 -9 -7z"/>
<path d="M1910 541 c0 -6 5 -13 10 -16 6 -3 10 1 10 9 0 9 -4 16 -10 16 -5 0
-10 -4 -10 -9z"/>
<path d="M2420 430 c-10 -6 -6 -9 18 -8 17 1 29 5 26 10 -7 11 -25 10 -44 -2z"/>
</g>
</svg>
