<?xml version="1.0" encoding="utf-8"?>
<svg xmlns="http://www.w3.org/2000/svg" style="margin: auto; display: block; shape-rendering: auto;" width="286" height="108" preserveAspectRatio="xMidYMid">
<style type="text/css">
  text {
    text-anchor: middle; font-size: 63px; opacity: 0;
  }
</style>
<g style="transform-origin: 143px 54px; transform: scale(0.913043);">
<g transform="translate(143,54)">
  <g transform="translate(0,0)"><g class="path" style="opacity: 1; transform-origin: -124.76px -6.31798px; animation: 3.22581s linear -1.93548s infinite normal forwards running fade-c5af5fa8-6f93-4b75-acff-487910742d39;"><path d="M3.17-48.30L43.88-48.30L44.57-30.98L43.26-30.98L43.26-30.98Q40.23-40.16 37.88-43.50L37.88-43.50L37.88-43.50Q35.54-46.85 31.12-46.85L31.12-46.85L30.29-46.85L30.29-1.45L36.16-1.45L36.16 0L10.97 0L10.97-1.45L16.84-1.45L16.84-46.85L15.94-46.85L15.94-46.85Q11.52-46.85 9.11-43.37L9.11-43.37L9.11-43.37Q6.69-39.88 3.80-30.98L3.80-30.98L2.48-30.98L3.17-48.30" fill="#fe0000" stroke="none" stroke-width="none" transform="translate(-148.28500366210938,17.832019320401276)" style="fill: rgb(254, 0, 0);"></path></g><g class="path" style="opacity: 1; transform-origin: -85.25px 1.06702px; animation: 3.22581s linear -1.74194s infinite normal forwards running fade-c5af5fa8-6f93-4b75-acff-487910742d39;"><path d="M69.48-30.91L69.48-30.91L69.48-30.91Q66.93-30.91 65.00-27.60L65.00-27.60L65.00-27.60Q63.07-24.29 63.07-19.73L63.07-19.73L63.07-1.24L67.97-1.24L67.97 0L46.44 0L46.44-1.24L50.23-1.24L50.23-31.60L46.44-31.60L46.44-32.84L63.07-32.84L63.07-26.22L63.07-26.22Q63.96-29.74 66.52-31.64L66.52-31.64L66.52-31.64Q69.07-33.53 72.31-33.53L72.31-33.53L72.31-33.53Q75.56-33.53 77.59-31.71L77.59-31.71L77.59-31.71Q79.63-29.88 79.63-26.53L79.63-26.53L79.63-26.53Q79.63-23.18 78.11-21.39L78.11-21.39L78.11-21.39Q76.59-19.60 73.45-19.60L73.45-19.60L73.45-19.60Q70.31-19.60 68.83-21.67L68.83-21.67L68.83-21.67Q67.34-23.74 68.45-27.39L68.45-27.39L70.93-27.39L70.93-27.39Q72.66-30.91 69.48-30.91" fill="#fe0000" stroke="none" stroke-width="none" transform="translate(-148.28500366210938,17.832019320401276)" style="fill: rgb(255, 99, 0);"></path></g><g class="path" style="opacity: 1; transform-origin: -50.715px 10.037px; animation: 3.22581s linear -1.54839s infinite normal forwards running fade-c5af5fa8-6f93-4b75-acff-487910742d39;"><path d="M82.04-31.60L79.21-31.60L79.21-32.84L99.22-32.84L99.22-31.60L95.50-31.60L103.02-8.69L111.02-31.60L106.40-31.60L106.40-32.84L116.13-32.84L116.13-31.60L112.68-31.60L99.77 5.59L99.77 5.59Q97.50 12.08 94.67 14.66L94.67 14.66L94.67 14.66Q91.84 17.25 87.77 17.25L87.77 17.25L87.77 17.25Q83.70 17.25 81.35 15.39L81.35 15.39L81.35 15.39Q79.01 13.52 79.01 10.63L79.01 10.63L79.01 10.63Q79.01 7.73 80.52 6.21L80.52 6.21L80.52 6.21Q82.04 4.69 84.53 4.69L84.53 4.69L84.53 4.69Q90.25 4.69 90.25 9.45L90.25 9.45L90.25 9.45Q90.25 10.49 89.84 11.94L89.84 11.94L87.42 11.94L87.42 11.94Q86.87 13.52 87.29 14.56L87.29 14.56L87.29 14.56Q87.70 15.59 89.15 15.59L89.15 15.59L89.15 15.59Q91.98 15.59 94.19 12.80L94.19 12.80L94.19 12.80Q96.39 10.01 98.39 4.28L98.39 4.28L99.91 0L93.84 0L82.04-31.60" fill="#fe0000" stroke="none" stroke-width="none" transform="translate(-148.28500366210938,17.832019320401276)" style="fill: rgb(255, 255, 1);"></path></g><g class="path" style="opacity: 1; transform-origin: -11.15px 1.06702px; animation: 3.22581s linear -1.35484s infinite normal forwards running fade-c5af5fa8-6f93-4b75-acff-487910742d39;"><path d="M116.40-31.60L116.40-32.84L133.03-32.84L133.03-26.50L133.03-26.50Q134.14-29.67 136.41-31.60L136.41-31.60L136.41-31.60Q138.69-33.53 143.31-33.53L143.31-33.53L143.31-33.53Q154.01-33.53 154.01-22.01L154.01-22.01L154.01-1.24L157.87-1.24L157.87 0L138.35 0L138.35-1.24L141.17-1.24L141.17-23.67L141.17-23.67Q141.17-27.81 140.62-29.01L140.62-29.01L140.62-29.01Q140.07-30.22 138.62-30.22L138.62-30.22L138.62-30.22Q136.41-30.22 134.72-27.32L134.72-27.32L134.72-27.32Q133.03-24.43 133.03-20.29L133.03-20.29L133.03-1.24L136.00-1.24L136.00 0L116.40 0L116.40-1.24L120.20-1.24L120.20-31.60L116.40-31.60" fill="#fe0000" stroke="none" stroke-width="none" transform="translate(-148.28500366210938,17.832019320401276)" style="fill: rgb(0, 128, 1);"></path></g><g class="path" style="opacity: 1; transform-origin: 13.28px 10.037px; animation: 3.22581s linear -1.16129s infinite normal forwards running fade-c5af5fa8-6f93-4b75-acff-487910742d39;"><path d="M158.08-32.84L175.40-32.84L175.40-5.93L175.40-5.93Q175.40 5.38 171.50 11.32L171.50 11.32L171.50 11.32Q167.60 17.25 158.77 17.25L158.77 17.25L158.77 17.25Q153.04 17.25 150.39 14.97L150.39 14.97L150.39 14.97Q147.73 12.70 147.73 9.66L147.73 9.66L147.73 9.66Q147.73 6.62 149.52 5.00L149.52 5.00L149.52 5.00Q151.32 3.38 154.01 3.38L154.01 3.38L154.01 3.38Q156.70 3.38 158.04 4.86L158.04 4.86L158.04 4.86Q159.39 6.35 159.39 8.14L159.39 8.14L159.39 8.14Q159.39 9.94 158.98 11.59L158.98 11.59L156.35 11.59L156.35 11.59Q155.25 13.46 156.04 14.77L156.04 14.77L156.04 14.77Q156.84 16.08 158.94 16.08L158.94 16.08L158.94 16.08Q161.05 16.08 161.81 13.70L161.81 13.70L161.81 13.70Q162.56 11.32 162.56 3.86L162.56 3.86L162.56-31.60L158.08-31.60L158.08-32.84" fill="#fe0000" stroke="none" stroke-width="none" transform="translate(-148.28500366210938,17.832019320401276)" style="fill: rgb(70, 0, 255);"></path></g><g class="path" style="opacity: 1; transform-origin: 20.73px -26.193px; animation: 3.22581s linear -0.967742s infinite normal forwards running fade-c5af5fa8-6f93-4b75-acff-487910742d39;"><path d="M168.84-37.61L168.84-37.61L168.84-37.61Q165.19-37.61 163.63-39.47L163.63-39.47L163.63-39.47Q162.08-41.33 162.08-44.09L162.08-44.09L162.08-44.09Q162.08-46.85 163.77-48.65L163.77-48.65L163.77-48.65Q165.46-50.44 168.91-50.44L168.91-50.44L168.91-50.44Q172.36-50.44 174.16-48.82L174.16-48.82L174.16-48.82Q175.95-47.20 175.95-44.19L175.95-44.19L175.95-44.19Q175.95-41.19 174.23-39.40L174.23-39.40L174.23-39.40Q172.50-37.61 168.84-37.61" fill="#fe0000" stroke="none" stroke-width="none" transform="translate(-148.28500366210938,17.832019320401276)" style="fill: rgb(207, 25, 215);"></path></g><g class="path" style="opacity: 1; transform-origin: 42.26px -26.193px; animation: 3.22581s linear -0.774194s infinite normal forwards running fade-c5af5fa8-6f93-4b75-acff-487910742d39;"><path d="M190.37-37.61L190.37-37.61L190.37-37.61Q186.71-37.61 185.16-39.47L185.16-39.47L185.16-39.47Q183.61-41.33 183.61-44.09L183.61-44.09L183.61-44.09Q183.61-46.85 185.30-48.65L185.30-48.65L185.30-48.65Q186.99-50.44 190.44-50.44L190.44-50.44L190.44-50.44Q193.89-50.44 195.68-48.82L195.68-48.82L195.68-48.82Q197.48-47.20 197.48-44.19L197.48-44.19L197.48-44.19Q197.48-41.19 195.75-39.40L195.75-39.40L195.75-39.40Q194.03-37.61 190.37-37.61" fill="#fe0000" stroke="none" stroke-width="none" transform="translate(-148.28500366210938,17.832019320401276)" style="fill: rgb(254, 0, 0);"></path></g><g class="path" style="opacity: 1; transform-origin: 42.05px 1.41202px; animation: 3.22581s linear -0.580645s infinite normal forwards running fade-c5af5fa8-6f93-4b75-acff-487910742d39;"><path d="M179.95-31.60L179.95-32.84L196.86-32.84L196.86-1.24L200.72-1.24L200.72 0L180.23 0L180.23-1.24L184.02-1.24L184.02-31.60L179.95-31.60" fill="#fe0000" stroke="none" stroke-width="none" transform="translate(-148.28500366210938,17.832019320401276)" style="fill: rgb(255, 99, 0);"></path></g><g class="path" style="opacity: 1; transform-origin: 66.895px -4.28298px; animation: 3.22581s linear -0.387097s infinite normal forwards running fade-c5af5fa8-6f93-4b75-acff-487910742d39;"><path d="M205.55-9.87L205.55-9.87L205.55-31.60L201.76-31.60L201.76-32.84L205.55-32.84L205.55-41.75L218.38-44.92L218.38-32.84L227.36-32.84L227.36-31.60L218.38-31.60L218.38-8.35L218.38-8.35Q218.38-5.11 219.04-3.59L219.04-3.59L219.04-3.59Q219.70-2.07 221.77-2.07L221.77-2.07L221.77-2.07Q223.84-2.07 225.39-4.14L225.39-4.14L225.39-4.14Q226.94-6.21 227.42-9.80L227.42-9.80L228.60-9.66L228.60-9.66Q228.05-4.90 225.56-2.10L225.56-2.10L225.56-2.10Q223.08 0.69 217.35 0.69L217.35 0.69L217.35 0.69Q211.62 0.69 208.59-1.59L208.59-1.59L208.59-1.59Q205.55-3.86 205.55-9.87" fill="#fe0000" stroke="none" stroke-width="none" transform="translate(-148.28500366210938,17.832019320401276)" style="fill: rgb(255, 255, 1);"></path></g><g class="path" style="opacity: 1; transform-origin: 95.73px 1.34202px; animation: 3.22581s linear -0.193548s infinite normal forwards running fade-c5af5fa8-6f93-4b75-acff-487910742d39;"><path d="M231.70 0.69L230.87 0.69L230.87-11.66L231.70-11.66L231.70-11.66Q233.50-5.66 236.53-3.24L236.53-3.24L236.53-3.24Q239.57-0.83 244.12-0.83L244.12-0.83L244.12-0.83Q251.16-0.83 251.16-5.31L251.16-5.31L251.16-5.31Q251.16-7.25 249.44-8.21L249.44-8.21L249.44-8.21Q246.74-9.73 242.53-10.56L242.53-10.56L242.53-10.56Q237.84-11.80 234.67-13.87L234.67-13.87L234.67-13.87Q230.87-16.35 230.87-21.74L230.87-21.74L230.87-21.74Q230.87-27.12 234.19-30.33L234.19-30.33L234.19-30.33Q237.50-33.53 243.02-33.53L243.02-33.53L243.02-33.53Q246.40-33.53 249.99-31.95L249.99-31.95L249.99-31.95Q251.30-31.40 251.99-31.40L251.99-31.40L251.99-31.40Q252.68-31.40 253.16-31.88L253.16-31.88L253.16-31.88Q253.64-32.36 254.33-33.67L254.33-33.67L255.09-33.67L255.09-23.12L254.27-23.12L254.27-23.12Q250.75-32.09 243.36-32.09L243.36-32.09L243.36-32.09Q240.12-32.09 238.53-30.95L238.53-30.95L238.53-30.95Q236.95-29.81 236.95-28.08L236.95-28.08L236.95-28.08Q236.95-27.05 237.43-26.46L237.43-26.46L237.43-26.46Q237.91-25.88 238.19-25.60L238.19-25.60L238.19-25.60Q238.46-25.32 239.09-25.01L239.09-25.01L239.09-25.01Q239.71-24.70 240.12-24.53L240.12-24.53L240.12-24.53Q240.53-24.36 241.40-24.08L241.40-24.08L241.40-24.08Q242.26-23.81 242.67-23.74L242.67-23.74L242.67-23.74Q247.37-22.56 249.44-21.70L249.44-21.70L249.44-21.70Q251.50-20.84 253.37-19.60L253.37-19.60L253.37-19.60Q257.16-16.97 257.16-11.14L257.16-11.14L257.16-11.14Q257.16-5.31 253.71-2.31L253.71-2.31L253.71-2.31Q250.26 0.69 244.26 0.69L244.26 0.69L244.26 0.69Q239.98 0.69 235.98-1.31L235.98-1.31L235.98-1.31Q235.15-1.86 234.67-1.86L234.67-1.86L234.67-1.86Q233.15-1.86 231.70 0.69L231.70 0.69" fill="#fe0000" stroke="none" stroke-width="none" transform="translate(-148.28500366210938,17.832019320401276)" style="fill: rgb(0, 128, 1);"></path></g><g class="path" style="opacity: 1; transform-origin: 130.375px 1.75702px; animation: 3.22581s linear 0s infinite normal forwards running fade-c5af5fa8-6f93-4b75-acff-487910742d39;"><path d="M299.05-1.24L299.05 0L283.31 0L282.56-5.04L282.56-5.04Q281.45-2.28 279.28-0.79L279.28-0.79L279.28-0.79Q277.10 0.69 272.83 0.69L272.83 0.69L272.83 0.69Q262.13 0.69 262.13-10.83L262.13-10.83L262.13-31.60L258.27-31.60L258.27-32.84L274.96-32.84L274.96-9.18L274.96-9.18Q274.96-5.04 275.55-3.73L275.55-3.73L275.55-3.73Q276.14-2.42 277.90-2.42L277.90-2.42L277.90-2.42Q279.66-2.42 281.04-4.55L281.04-4.55L281.04-4.55Q282.42-6.69 282.42-10.49L282.42-10.49L282.42-31.60L279.24-31.60L279.24-32.84L295.25-32.84L295.25-1.24L299.05-1.24" fill="#fe0000" stroke="none" stroke-width="none" transform="translate(-148.28500366210938,17.832019320401276)" style="fill: rgb(70, 0, 255);"></path></g></g>
</g>
</g>
<style id="fade-c5af5fa8-6f93-4b75-acff-487910742d39" data-anikit="">@keyframes fade-c5af5fa8-6f93-4b75-acff-487910742d39
{
  0% {
    animation-timing-function: cubic-bezier(0.2057,0.573,0.3723,0.9184);
    opacity: 1;
  }
  100% {
    opacity: 0;
  }
}</style></svg>