<?xml version="1.0" encoding="utf-8"?>
<svg xmlns="http://www.w3.org/2000/svg" style="margin: auto; display: block; shape-rendering: auto;" width="289" height="70" preserveAspectRatio="xMidYMid">
<style type="text/css">
  text {
    text-anchor: middle; font-size: 52px; opacity: 0;
  }
</style>
<g style="transform-origin:144.5px 35px;transform:scale(1)">
<g transform="translate(144.5,35)">
  <g transform="translate(0,0)"><g class="path" style="opacity: 1; transform-origin: -32.525px -4.04214px; animation: 3.22581s linear -1.41935s infinite normal forwards running fade-c5af5fa8-6f93-4b75-acff-487910742d39;"><path d="M13.57-35.41L22.05-10.50L26.36-25.48L23.24-35.41L20.28-35.41L20.28-36.40L36.40-36.40L36.40-35.41L33.33-35.41L41.08-10.82L47.32-35.41L42.07-35.41L42.07-36.40L52.47-36.40L52.47-35.41L49.04-35.41L39.47 0.52L34.84 0.52L27.14-22.98L20.38 0.52L15.86 0.52L2.76-35.41L0.31-35.41L0.31-36.40L17.21-36.40L17.21-35.41L13.57-35.41" fill="#fe0000" stroke="none" stroke-width="none" transform="translate(-58.915008544921875,13.897864888509112)" style="fill: rgb(254, 0, 0);"></path></g><g class="path" style="opacity: 1; transform-origin: 9.43999px -4.30214px; animation: 3.22581s linear -0.709677s infinite normal forwards running fade-c5af5fa8-6f93-4b75-acff-487910742d39;"><path d="M53.87-35.26L53.87-36.40L80.91-36.40L81.43-26.10L80.50-26.10L80.50-26.10Q78.31-31.36 75.92-33.31L75.92-33.31L75.92-33.31Q73.53-35.26 68.90-35.26L68.90-35.26L67.08-35.26L67.08-19.19L68.85-19.19L68.85-19.19Q71.29-19.19 72.96-21.03L72.96-21.03L72.96-21.03Q74.62-22.88 75.30-26.00L75.30-26.00L76.08-26.00L76.08-10.61L75.19-10.61L75.19-10.61Q74.26-14.51 72.67-16.17L72.67-16.17L72.67-16.17Q71.08-17.84 68.33-17.84L68.33-17.84L67.08-17.84L67.08-1.14L69.06-1.14L69.06-1.14Q73.84-1.14 77.19-4.00L77.19-4.00L77.19-4.00Q80.55-6.86 81.80-11.34L81.80-11.34L82.84-11.34L82.42 0L53.87 0L53.87-1.14L56.94-1.14L56.94-35.26L53.87-35.26" fill="#fe0000" stroke="none" stroke-width="none" transform="translate(-58.915008544921875,13.897864888509112)" style="fill: rgb(255, 99, 0);"></path></g><g class="path" style="opacity: 1; transform-origin: 43.315px -4.30214px; animation: 3.22581s linear 0s infinite normal forwards running fade-c5af5fa8-6f93-4b75-acff-487910742d39;"><path d="M86.32-35.41L86.32-36.40L101.87-36.40L101.87-36.40Q109.10-36.40 112.71-34.45L112.71-34.45L112.71-34.45Q116.32-32.50 116.32-27.87L116.32-27.87L116.32-27.87Q116.32-20.75 107.74-19.34L107.74-19.34L107.74-19.24L107.74-19.24Q118.14-17.94 118.14-10.19L118.14-10.19L118.14-10.19Q118.14-4.52 113.88-2.26L113.88-2.26L113.88-2.26Q109.62 0 101.61 0L101.61 0L86.32 0L86.32-0.99L89.70-0.99L89.70-35.41L86.32-35.41zM101.04-18.41L99.84-18.41L99.84-0.99L102.28-0.99L102.28-0.99Q105.14-0.99 106.29-2.96L106.29-2.96L106.29-2.96Q107.43-4.94 107.43-8.79L107.43-8.79L107.43-11.54L107.43-11.54Q107.43-14.98 106.03-16.69L106.03-16.69L106.03-16.69Q104.62-18.41 101.04-18.41L101.04-18.41zM101.50-35.41L99.84-35.41L99.84-19.40L101.19-19.40L101.19-19.40Q103.90-19.40 104.96-21.03L104.96-21.03L104.96-21.03Q106.03-22.67 106.03-26.05L106.03-26.05L106.03-28.50L106.03-28.50Q106.03-32.34 105.09-33.88L105.09-33.88L105.09-33.88Q104.16-35.41 101.50-35.41L101.50-35.41" fill="#fe0000" stroke="none" stroke-width="none" transform="translate(-58.915008544921875,13.897864888509112)" style="fill: rgb(255, 255, 1);"></path></g></g>
</g>
</g>
<style id="fade-c5af5fa8-6f93-4b75-acff-487910742d39" data-anikit="">@keyframes fade-c5af5fa8-6f93-4b75-acff-487910742d39
{
  0% {
    animation-timing-function: cubic-bezier(0.2057,0.573,0.3723,0.9184);
    opacity: 1;
  }
  100% {
    opacity: 0;
  }
}</style></svg>